# xmcd
#
# Track frame offsets:
#	182
#	19325
#	48475
#	71050
#	96325
#	120300
#	135650
#	148100
#	159400
#	174675
#	186250
#	198300
#	210575
#	225800
#	236300
#
# Disc length: 3293 seconds
#
# Revision: 4
# Processed by: cddbd v1.5.2PL0 Copyright (c) Steve Scherf et al.
# Submitted via: EasyCDDAExtractor 15.3.0.1
#
DISCID=cd0cdb0f
DTITLE=Howlin' Wolf - The very best of Howlin' Wolf CD 1
DYEAR=1992
DGENRE=Blues
TTITLE0=Shake It for Me
TTITLE1=Love Me
TTITLE2=Dust My Broom
TTITLE3=I Didn't Mean to Hurt Your Feelings
TTITLE4=Rockin' the Blues
TTITLE5=Dothe Do
TTITLE6=Ain't Superstitious
TTITLE7=My Country Sugar Mama
TTITLE8=Killing Floor
TTITLE9=Morning at Midnight
TTITLE10=Passing by Blues
TTITLE11=Cause of It All
TTITLE12=Commit a Crime
TTITLE13=Somebody Walkin' in My House
TTITLE14=Built for Comfort
EXTD=
EXTT0=
EXTT1=
EXTT2=
EXTT3=
EXTT4=
EXTT5=
EXTT6=
EXTT7=
EXTT8=
EXTT9=
EXTT10=
EXTT11=
EXTT12=
EXTT13=
EXTT14=
PLAYORDER=
